<svg xmlns="http://www.w3.org/2000/svg" xmlns:xlink="http://www.w3.org/1999/xlink" width="1080" zoomAndPan="magnify" viewBox="0 0 810 299.999988" height="400" preserveAspectRatio="xMidYMid meet" version="1.0"><defs><g/><clipPath id="id1"><path d="M 16 0 L 165.75 0 L 165.75 148 L 16 148 Z M 16 0 " clip-rule="nonzero"/></clipPath></defs><path fill="#000000" d="M 162.394531 47.960938 C 162.292969 47.792969 162.15625 47.65625 162.054688 47.488281 C 159.828125 44.65625 156.082031 43.101562 152.542969 43.507812 C 148.628906 43.945312 145.726562 45.867188 144.171875 46.980469 C 144.171875 46.980469 134.625 53.761719 119.003906 60.269531 C 116.339844 61.382812 115.898438 60.945312 115.796875 60.808594 C 115.695312 60.675781 115.664062 60.472656 115.765625 60.203125 C 117.6875 53.558594 119.78125 46.914062 121.027344 40.136719 C 122.546875 32.613281 123.492188 24.992188 123.863281 17.335938 C 124.066406 13.457031 124.03125 9.34375 121.972656 6.070312 C 118.765625 0.945312 110.570312 0 106.25 4.25 C 103.550781 6.914062 102.570312 10.828125 101.761719 14.535156 C 100.714844 19.257812 99.738281 24.011719 98.859375 28.769531 C 98.421875 31.164062 98.085938 33.59375 97.78125 36.019531 C 97.375 39.222656 97.207031 41.316406 96.398438 41.484375 C 96.09375 41.550781 95.554688 41.449219 94.675781 39.933594 C 93.765625 38.382812 92.886719 36.828125 91.945312 35.3125 C 90.222656 32.480469 88.433594 29.714844 86.546875 27.015625 C 82.800781 21.585938 78.683594 16.390625 74.230469 11.46875 C 71.597656 8.53125 68.695312 5.632812 65.019531 4.285156 C 62.050781 3.203125 58.472656 3.40625 55.910156 5.328125 C 53.175781 7.320312 50.816406 9.039062 51.085938 12.851562 C 51.253906 15.210938 52.332031 17.4375 53.414062 19.5625 C 55.402344 23.371094 57.597656 27.117188 59.957031 30.726562 C 59.992188 30.792969 61.476562 32.953125 64.378906 37.234375 C 66.503906 40.335938 68.257812 42.933594 67.953125 43.171875 C 67.820312 43.273438 67.480469 42.765625 66.4375 42.261719 C 65.425781 41.789062 64.445312 41.316406 63.433594 40.910156 C 61.410156 40.101562 59.351562 39.359375 57.257812 38.683594 C 53.109375 37.300781 48.859375 36.1875 44.574219 35.3125 C 41.941406 34.773438 39.308594 34.335938 36.675781 33.996094 C 33.507812 33.59375 30.164062 33.324219 27.195312 34.503906 C 23.824219 35.851562 21.257812 39.089844 20.71875 42.699219 C 20.210938 46.308594 21.730469 50.117188 24.597656 52.378906 C 26.859375 54.132812 29.726562 54.90625 32.492188 55.648438 C 42.042969 58.28125 51.386719 61.550781 60.5 65.496094 C 59.6875 65.160156 56.28125 66.914062 55.402344 67.21875 C 53.546875 67.890625 51.726562 68.601562 49.902344 69.34375 C 46.257812 70.828125 42.683594 72.480469 39.207031 74.265625 C 32.695312 77.605469 24.902344 81.449219 20.042969 87.082031 C 16.5 91.230469 15.792969 97.300781 19.4375 101.652344 C 21.796875 104.453125 25.644531 105.9375 29.253906 105.398438 C 32.425781 104.925781 35.226562 103.070312 37.960938 101.382812 C 44.910156 97.066406 52.300781 93.457031 59.992188 90.625 C 62.554688 89.679688 64.953125 87.757812 65.863281 88.601562 C 66.808594 89.476562 65.289062 92.511719 64.75 93.660156 C 57.933594 107.824219 56.855469 126.308594 56.683594 128.09375 C 56.144531 133.390625 56.078125 139.292969 59.519531 143.339844 C 63.90625 148.5 73.421875 147.65625 76.828125 141.789062 C 78.277344 139.292969 78.648438 136.324219 79.054688 133.457031 C 80.335938 124.417969 81.519531 119.898438 81.519531 119.898438 C 83.40625 108.566406 83.878906 106.578125 84.789062 106.511719 C 85.703125 106.410156 86.140625 108.363281 89.347656 114.234375 C 90.15625 115.75 91.875 118.855469 94.304688 122.597656 C 97.78125 127.992188 101.628906 133.085938 105.878906 137.910156 C 108.679688 141.078125 111.917969 144.285156 116.101562 145.058594 C 122.207031 146.140625 128.550781 140.40625 128.078125 134.234375 C 127.878906 131.804688 127.269531 130.050781 125.480469 126.949219 C 121.835938 120.640625 112.085938 107.757812 111.75 106.207031 C 111.75 106.207031 111.75 106.171875 111.75 106.140625 C 112.019531 105.53125 119.105469 108.703125 127.371094 111.265625 C 129.09375 111.804688 135.570312 113.492188 144.003906 114.839844 C 147.175781 115.347656 150.550781 115.71875 153.585938 114.605469 C 159.558594 112.378906 161.988281 103.8125 158.007812 98.820312 C 155.949219 96.222656 153.453125 94.839844 149.101562 93.390625 C 130.980469 87.421875 121.871094 86.609375 121.703125 84.386719 C 121.566406 82.699219 126.765625 82.023438 138.4375 76.59375 C 139.113281 76.289062 146.332031 72.582031 155.039062 66.847656 C 158.613281 64.484375 162.324219 61.71875 163.777344 57.671875 C 164.855469 54.503906 164.351562 50.757812 162.394531 47.960938 Z M 162.394531 47.960938 " fill-opacity="1" fill-rule="nonzero"/><g clip-path="url(#id1)"><path fill="#000000" d="M 67.449219 147.589844 C 64.039062 147.589844 60.902344 146.242188 58.878906 143.878906 C 55.234375 139.5625 55.300781 133.425781 55.84375 127.992188 C 55.84375 127.894531 55.875 127.722656 55.875 127.453125 C 56.957031 114.03125 59.824219 101.890625 63.972656 93.253906 L 64.074219 93.054688 C 65.425781 90.1875 65.390625 89.410156 65.289062 89.175781 C 64.917969 89.105469 63.738281 89.714844 62.925781 90.152344 C 62.117188 90.558594 61.207031 91.027344 60.296875 91.367188 C 52.671875 94.164062 45.316406 97.773438 38.433594 102.058594 L 37.824219 102.429688 C 35.226562 104.046875 32.527344 105.734375 29.390625 106.171875 C 25.507812 106.746094 21.359375 105.160156 18.796875 102.125 C 15.082031 97.671875 15.320312 91.230469 19.402344 86.476562 C 24.160156 80.980469 31.480469 77.199219 37.960938 73.894531 L 38.804688 73.457031 C 42.347656 71.636719 45.957031 69.984375 49.566406 68.5 C 51.523438 67.722656 53.3125 67.015625 55.101562 66.375 C 55.300781 66.308594 55.707031 66.136719 56.144531 65.9375 C 56.753906 65.667969 57.328125 65.429688 57.800781 65.226562 C 49.566406 61.789062 40.996094 58.820312 32.257812 56.425781 C 29.558594 55.683594 26.488281 54.875 24.058594 53.019531 C 20.953125 50.589844 19.300781 46.476562 19.875 42.5625 C 20.449219 38.652344 23.214844 35.175781 26.859375 33.691406 C 30.066406 32.410156 33.640625 32.75 36.746094 33.121094 C 39.375 33.457031 42.074219 33.894531 44.707031 34.433594 C 49.160156 35.347656 53.445312 36.492188 57.496094 37.839844 C 59.585938 38.515625 61.679688 39.257812 63.703125 40.101562 C 64.445312 40.40625 65.1875 40.742188 65.929688 41.078125 C 65.222656 39.964844 64.3125 38.652344 63.636719 37.671875 C 62.082031 35.378906 60.9375 33.691406 60.195312 32.613281 C 59.453125 31.5 59.25 31.230469 59.183594 31.128906 C 56.820312 27.519531 54.59375 23.742188 52.601562 19.898438 C 51.421875 17.570312 50.34375 15.3125 50.171875 12.851562 C 49.871094 8.566406 52.535156 6.644531 55.335938 4.585938 C 57.96875 2.628906 61.746094 2.160156 65.222656 3.441406 C 69.203125 4.890625 72.238281 8.027344 74.769531 10.859375 C 79.222656 15.816406 83.40625 21.078125 87.152344 26.507812 C 88.976562 29.105469 90.761719 31.839844 92.585938 34.839844 C 93.261719 35.917969 93.933594 37.066406 94.574219 38.179688 C 94.8125 38.617188 95.082031 39.054688 95.316406 39.496094 C 95.6875 40.136719 95.960938 40.4375 96.09375 40.539062 C 96.363281 39.964844 96.566406 38.3125 96.734375 36.828125 L 96.835938 35.886719 C 97.207031 32.917969 97.542969 30.65625 97.914062 28.601562 C 98.757812 24.082031 99.738281 19.292969 100.816406 14.332031 C 101.695312 10.285156 102.742188 6.40625 105.542969 3.640625 C 107.769531 1.449219 111.109375 0.40625 114.550781 0.808594 C 117.992188 1.214844 120.925781 2.96875 122.578125 5.632812 C 124.808594 9.207031 124.808594 13.558594 124.605469 17.402344 C 124.234375 25.09375 123.289062 32.816406 121.769531 40.335938 C 120.722656 46.070312 119.039062 51.769531 117.417969 57.269531 C 117.148438 58.246094 116.84375 59.191406 116.574219 60.167969 C 116.910156 60.101562 117.550781 59.964844 118.597656 59.527344 C 133.949219 53.121094 143.5 46.410156 143.601562 46.339844 C 145.457031 44.992188 148.425781 43.171875 152.371094 42.730469 C 156.21875 42.292969 160.234375 43.980469 162.628906 47.015625 L 162.695312 47.117188 C 162.730469 47.183594 162.765625 47.21875 162.796875 47.285156 C 162.867188 47.351562 162.933594 47.453125 163 47.589844 C 165.09375 50.589844 165.667969 54.570312 164.484375 58.042969 C 162.933594 62.429688 158.984375 65.296875 155.410156 67.65625 C 146.601562 73.457031 139.417969 77.132812 138.675781 77.472656 C 133.648438 79.796875 129.867188 81.25 127.101562 82.292969 C 124.839844 83.171875 122.714844 83.980469 122.445312 84.417969 C 122.714844 85.160156 126.933594 86.273438 131.046875 87.351562 C 135.503906 88.535156 141.574219 90.152344 149.269531 92.683594 C 154.058594 94.265625 156.488281 95.785156 158.582031 98.382812 C 160.605469 100.910156 161.246094 104.519531 160.269531 108.027344 C 159.289062 111.570312 156.859375 114.335938 153.789062 115.480469 C 150.484375 116.695312 146.90625 116.257812 143.769531 115.75 C 134.996094 114.335938 128.585938 112.648438 127 112.140625 C 123.289062 110.996094 119.847656 109.714844 117.046875 108.703125 C 115.597656 108.164062 114.144531 107.621094 113.097656 107.285156 C 114.109375 108.90625 116.066406 111.738281 117.890625 114.300781 C 120.859375 118.550781 124.234375 123.375 126.089844 126.578125 C 127.910156 129.746094 128.585938 131.601562 128.789062 134.199219 C 129.023438 137.371094 127.605469 140.640625 125.007812 143.035156 C 122.378906 145.398438 118.96875 146.511719 115.832031 145.9375 C 111.480469 145.128906 108.105469 141.890625 105.136719 138.515625 C 100.886719 133.695312 96.972656 128.5 93.496094 123.105469 C 91.03125 119.324219 89.3125 116.191406 88.503906 114.671875 C 87.355469 112.582031 86.546875 110.960938 85.972656 109.78125 C 85.464844 108.769531 85.027344 107.894531 84.757812 107.523438 C 84.183594 108.632812 83.339844 113.492188 82.226562 120.066406 L 82.226562 120.136719 C 82.226562 120.167969 81.046875 124.722656 79.796875 133.59375 L 79.765625 133.929688 C 79.359375 136.761719 78.953125 139.695312 77.46875 142.226562 C 75.75 145.226562 72.375 147.21875 68.527344 147.554688 C 68.222656 147.589844 67.820312 147.589844 67.449219 147.589844 Z M 65.289062 87.554688 C 65.726562 87.554688 66.097656 87.691406 66.4375 87.992188 C 67.683594 89.140625 66.671875 91.601562 65.59375 93.828125 L 65.492188 94.03125 C 61.410156 102.496094 58.609375 114.4375 57.5625 127.621094 C 57.527344 127.859375 57.527344 128.0625 57.527344 128.164062 C 57.023438 133.253906 56.921875 138.957031 60.160156 142.765625 C 62.050781 144.992188 65.152344 146.140625 68.460938 145.835938 C 71.765625 145.53125 74.636719 143.84375 76.085938 141.351562 C 77.402344 139.089844 77.773438 136.324219 78.144531 133.660156 L 78.179688 133.324219 C 79.394531 124.65625 80.539062 120.203125 80.640625 119.695312 C 81.550781 114.300781 82.160156 110.757812 82.664062 108.769531 C 83.070312 107.117188 83.507812 105.734375 84.691406 105.667969 C 85.835938 105.53125 86.34375 106.542969 87.558594 109.003906 C 88.132812 110.1875 88.941406 111.769531 90.054688 113.828125 C 90.863281 115.347656 92.550781 118.414062 94.980469 122.125 C 98.421875 127.453125 102.300781 132.582031 106.484375 137.335938 C 109.253906 140.472656 112.390625 143.507812 116.238281 144.214844 C 118.835938 144.6875 121.738281 143.746094 123.996094 141.722656 C 126.222656 139.695312 127.4375 136.929688 127.234375 134.300781 C 127.035156 131.972656 126.460938 130.355469 124.738281 127.386719 C 122.917969 124.25 119.578125 119.460938 116.640625 115.246094 C 112.726562 109.648438 111.109375 107.25 110.941406 106.410156 L 110.90625 106.308594 L 110.90625 105.96875 L 110.972656 105.800781 C 111.378906 104.890625 112.527344 105.261719 113.671875 105.597656 C 114.683594 105.9375 116.101562 106.441406 117.753906 107.050781 C 120.523438 108.0625 123.929688 109.308594 127.605469 110.457031 C 129.53125 111.0625 136.109375 112.714844 144.140625 113.996094 C 147.042969 114.46875 150.382812 114.875 153.285156 113.792969 C 155.847656 112.851562 157.871094 110.457031 158.714844 107.453125 C 159.527344 104.484375 159.019531 101.449219 157.332031 99.324219 C 155.476562 97 153.25 95.648438 148.828125 94.164062 C 141.171875 91.636719 135.132812 90.050781 130.710938 88.871094 C 123.863281 87.050781 120.996094 86.308594 120.859375 84.417969 C 120.722656 82.832031 122.445312 82.160156 126.59375 80.609375 C 129.328125 79.5625 133.105469 78.144531 138.066406 75.816406 C 138.742188 75.515625 145.996094 71.769531 154.566406 66.136719 C 157.90625 63.945312 161.582031 61.25 162.96875 57.371094 C 163.980469 54.433594 163.472656 50.996094 161.683594 48.433594 L 161.652344 48.398438 C 161.617188 48.332031 161.582031 48.296875 161.550781 48.230469 C 161.480469 48.164062 161.414062 48.0625 161.347656 47.960938 C 159.289062 45.398438 155.882812 43.945312 152.609375 44.316406 C 149.066406 44.722656 146.367188 46.410156 144.644531 47.621094 C 144.542969 47.691406 134.828125 54.535156 119.308594 61.011719 C 116.945312 61.988281 115.695312 62.058594 115.089844 61.28125 C 114.820312 60.910156 114.753906 60.40625 114.921875 59.898438 C 115.226562 58.855469 115.527344 57.773438 115.832031 56.730469 C 117.453125 51.265625 119.105469 45.597656 120.152344 39.933594 C 121.667969 32.480469 122.613281 24.855469 122.984375 17.234375 C 123.1875 13.660156 123.1875 9.613281 121.230469 6.476562 C 119.847656 4.285156 117.316406 2.765625 114.414062 2.429688 C 111.511719 2.089844 108.644531 2.96875 106.789062 4.789062 C 104.328125 7.21875 103.347656 10.859375 102.539062 14.671875 C 101.457031 19.59375 100.480469 24.382812 99.636719 28.871094 C 99.265625 30.925781 98.929688 33.121094 98.558594 36.085938 L 98.457031 37.03125 C 98.050781 40.234375 97.847656 41.988281 96.53125 42.292969 C 95.351562 42.5625 94.472656 41.316406 93.902344 40.335938 C 93.664062 39.898438 93.394531 39.460938 93.160156 39.023438 C 92.515625 37.941406 91.875 36.796875 91.203125 35.71875 C 89.378906 32.75 87.625 30.050781 85.835938 27.453125 C 82.125 22.089844 78.007812 16.863281 73.589844 11.972656 C 71.195312 9.308594 68.324219 6.339844 64.714844 5.023438 C 61.78125 3.945312 58.574219 4.316406 56.414062 5.96875 C 53.785156 7.890625 51.691406 9.410156 51.929688 12.75 C 52.097656 14.875 53.042969 16.898438 54.15625 19.125 C 56.144531 22.902344 58.304688 26.644531 60.667969 30.21875 L 60.699219 30.253906 C 60.800781 30.386719 61.140625 30.925781 61.644531 31.636719 C 62.386719 32.714844 63.535156 34.402344 65.085938 36.695312 C 66.132812 38.210938 67.109375 39.664062 67.820312 40.777344 C 68.664062 42.089844 69.304688 43.171875 68.496094 43.777344 C 67.921875 44.214844 67.347656 43.777344 67.109375 43.609375 C 66.875 43.441406 66.605469 43.203125 66.097656 42.96875 L 65.625 42.730469 C 64.78125 42.328125 63.972656 41.957031 63.164062 41.617188 C 61.171875 40.808594 59.113281 40.066406 57.054688 39.425781 C 53.074219 38.113281 48.824219 36.964844 44.472656 36.089844 C 41.875 35.546875 39.242188 35.109375 36.644531 34.773438 C 33.742188 34.402344 30.402344 34.097656 27.566406 35.210938 C 24.464844 36.457031 22.101562 39.425781 21.597656 42.730469 C 21.125 46.070312 22.539062 49.546875 25.171875 51.636719 C 27.296875 53.289062 30.066406 54.03125 32.765625 54.738281 C 42.414062 57.402344 51.859375 60.707031 60.871094 64.621094 C 61.140625 64.855469 61.273438 65.226562 61.171875 65.566406 C 61.039062 65.96875 60.632812 66.207031 60.195312 66.171875 L 60.261719 66.207031 C 59.753906 66.136719 57.664062 67.082031 56.855469 67.421875 C 56.347656 67.65625 55.941406 67.824219 55.671875 67.925781 C 53.917969 68.566406 52.128906 69.242188 50.207031 70.050781 C 46.664062 71.5 43.089844 73.152344 39.578125 74.941406 L 38.703125 75.378906 C 32.359375 78.617188 25.207031 82.292969 20.652344 87.554688 C 17.109375 91.703125 16.871094 97.234375 20.042969 101.046875 C 22.238281 103.644531 25.78125 104.992188 29.085938 104.484375 C 31.851562 104.082031 34.417969 102.496094 36.878906 100.945312 L 37.488281 100.574219 C 44.472656 96.222656 51.929688 92.582031 59.65625 89.746094 C 60.5 89.445312 61.308594 89.003906 62.117188 88.601562 C 63.332031 88.09375 64.410156 87.554688 65.289062 87.554688 Z M 65.289062 87.554688 " fill-opacity="1" fill-rule="nonzero"/></g><g fill="#000000" fill-opacity="1"><g transform="translate(175.873831, 187.278573)"><g><path d="M 47.390625 2.09375 C 38.328125 2.09375 27.234375 0.695312 14.109375 -2.09375 L 7.84375 -3.3125 L 10.28125 -21.953125 C 25.84375 -19.859375 37.75 -18.8125 46 -18.8125 C 58.3125 -18.8125 64.46875 -23.925781 64.46875 -34.15625 C 64.46875 -38.332031 62.84375 -41.40625 59.59375 -43.375 C 56.34375 -45.351562 50.882812 -47.445312 43.21875 -49.65625 C 34.039062 -52.21875 26.804688 -55.066406 21.515625 -58.203125 C 16.234375 -61.335938 12.398438 -65.050781 10.015625 -69.34375 C 7.640625 -73.644531 6.453125 -78.988281 6.453125 -85.375 C 6.453125 -97 9.992188 -105.769531 17.078125 -111.6875 C 24.160156 -117.613281 34.09375 -120.578125 46.875 -120.578125 C 51.863281 -120.578125 57.03125 -120.257812 62.375 -119.625 C 67.71875 -118.988281 75.5625 -117.738281 85.90625 -115.875 L 83.984375 -96.890625 C 68.066406 -98.742188 56.507812 -99.671875 49.3125 -99.671875 C 36.644531 -99.671875 30.3125 -95.488281 30.3125 -87.125 C 30.3125 -84.21875 31.359375 -81.832031 33.453125 -79.96875 C 35.546875 -78.113281 38.160156 -76.578125 41.296875 -75.359375 C 44.429688 -74.140625 49.71875 -72.367188 57.15625 -70.046875 C 65.164062 -67.492188 71.378906 -64.820312 75.796875 -62.03125 C 80.210938 -59.238281 83.40625 -55.78125 85.375 -51.65625 C 87.351562 -47.539062 88.34375 -42.226562 88.34375 -35.71875 C 88.34375 -23.519531 84.65625 -14.164062 77.28125 -7.65625 C 69.90625 -1.15625 59.941406 2.09375 47.390625 2.09375 Z M 47.390625 2.09375 "/></g></g></g><g fill="#000000" fill-opacity="1"><g transform="translate(266.307332, 187.278573)"><g><path d="M 10.796875 -87.125 L 33.984375 -87.125 L 33.984375 -82.421875 C 38.515625 -85.085938 42.316406 -86.882812 45.390625 -87.8125 C 48.472656 -88.75 51.753906 -89.21875 55.234375 -89.21875 C 66.390625 -89.21875 74.664062 -85.53125 80.0625 -78.15625 C 85.46875 -70.78125 88.171875 -59.015625 88.171875 -42.859375 C 88.171875 -31.710938 86.832031 -22.882812 84.15625 -16.375 C 81.488281 -9.875 77.304688 -5.171875 71.609375 -2.265625 C 65.921875 0.640625 58.375 2.09375 48.96875 2.09375 C 44.320312 2.09375 39.382812 1.628906 34.15625 0.703125 L 34.15625 36.59375 L 10.796875 36.59375 Z M 46.703125 -18.125 C 53.203125 -18.125 57.785156 -20.007812 60.453125 -23.78125 C 63.128906 -27.5625 64.46875 -33.921875 64.46875 -42.859375 C 64.46875 -51.691406 63.25 -58.140625 60.8125 -62.203125 C 58.375 -66.273438 54.367188 -68.3125 48.796875 -68.3125 C 44.722656 -68.3125 40.539062 -67.4375 36.25 -65.6875 L 34.15625 -64.828125 L 34.15625 -19.171875 C 39.382812 -18.472656 43.566406 -18.125 46.703125 -18.125 Z M 46.703125 -18.125 "/></g></g></g><g fill="#000000" fill-opacity="1"><g transform="translate(356.740832, 187.278573)"><g><path d="M 44.953125 2.09375 C 31.359375 2.09375 21.539062 -1.332031 15.5 -8.1875 C 9.46875 -15.039062 6.453125 -26.132812 6.453125 -41.46875 C 6.453125 -57.5 9.613281 -69.460938 15.9375 -77.359375 C 22.269531 -85.265625 32.117188 -89.21875 45.484375 -89.21875 C 57.796875 -89.21875 67.113281 -85.9375 73.4375 -79.375 C 79.769531 -72.8125 82.9375 -62.960938 82.9375 -49.828125 L 81.203125 -33.625 L 29.96875 -33.625 C 30.195312 -29.5625 30.921875 -26.453125 32.140625 -24.296875 C 33.367188 -22.148438 35.347656 -20.640625 38.078125 -19.765625 C 40.804688 -18.898438 44.609375 -18.46875 49.484375 -18.46875 C 53.316406 -18.46875 57.90625 -18.582031 63.25 -18.8125 C 68.59375 -19.050781 72.484375 -19.285156 74.921875 -19.515625 L 79.8125 -20.03125 L 80.15625 -2.78125 C 67.03125 0.46875 55.296875 2.09375 44.953125 2.09375 Z M 59.9375 -51.40625 C 59.9375 -58.375 58.863281 -63.222656 56.71875 -65.953125 C 54.570312 -68.679688 50.769531 -70.046875 45.3125 -70.046875 C 39.726562 -70.046875 35.773438 -68.625 33.453125 -65.78125 C 31.128906 -62.9375 29.910156 -58.144531 29.796875 -51.40625 Z M 59.9375 -51.40625 "/></g></g></g><g fill="#000000" fill-opacity="1"><g transform="translate(441.249961, 187.278573)"><g><path d="M 11.84375 -121.96875 L 35.203125 -121.96875 L 35.203125 0 L 11.84375 0 Z M 11.84375 -121.96875 "/></g></g></g><g fill="#000000" fill-opacity="1"><g transform="translate(483.940013, 187.278573)"><g><path d="M 14.984375 -67.265625 L 5.578125 -67.265625 L 5.578125 -87.125 L 14.984375 -87.125 L 14.984375 -90.953125 C 14.984375 -99.429688 15.796875 -106.050781 17.421875 -110.8125 C 19.046875 -115.582031 21.660156 -118.984375 25.265625 -121.015625 C 28.867188 -123.046875 33.921875 -124.0625 40.421875 -124.0625 L 60.296875 -122.5 L 59.9375 -102.8125 L 45.484375 -103.5 C 43.035156 -103.5 41.226562 -102.25 40.0625 -99.75 C 38.90625 -97.257812 38.328125 -94.269531 38.328125 -90.78125 L 38.328125 -87.125 L 59.421875 -87.125 L 59.421875 -67.265625 L 38.328125 -67.265625 L 38.328125 0 L 14.984375 0 Z M 14.984375 -67.265625 "/></g></g></g><g fill="#000000" fill-opacity="1"><g transform="translate(175.873831, 284.651343)"><g><path d="M 34.328125 -40.1875 L 34.328125 0 L 26.140625 0 L 10.515625 -36.234375 L 9.40625 -36.234375 L 9.40625 0 L 4.9375 0 L 4.9375 -40.1875 L 13.296875 -40.1875 L 28.75 -3.953125 L 29.90625 -3.953125 L 29.90625 -40.1875 Z M 34.328125 -40.1875 "/></g></g></g><g fill="#000000" fill-opacity="1"><g transform="translate(215.134593, 284.651343)"><g><path d="M 15.046875 0.578125 C 10.628906 0.578125 7.5 -0.570312 5.65625 -2.875 C 3.820312 -5.175781 2.90625 -8.804688 2.90625 -13.765625 C 2.90625 -19.148438 3.890625 -23.140625 5.859375 -25.734375 C 7.835938 -28.328125 10.9375 -29.625 15.15625 -29.625 C 19.03125 -29.625 21.925781 -28.507812 23.84375 -26.28125 C 25.757812 -24.050781 26.71875 -20.632812 26.71875 -16.03125 L 26.484375 -12.71875 L 7.3125 -12.71875 C 7.3125 -10.320312 7.570312 -8.441406 8.09375 -7.078125 C 8.625 -5.722656 9.515625 -4.742188 10.765625 -4.140625 C 12.023438 -3.546875 13.78125 -3.25 16.03125 -3.25 C 17.15625 -3.25 18.453125 -3.273438 19.921875 -3.328125 C 21.390625 -3.390625 22.722656 -3.476562 23.921875 -3.59375 L 25.609375 -3.78125 L 25.734375 -0.34375 C 21.429688 0.269531 17.867188 0.578125 15.046875 0.578125 Z M 22.359375 -16.203125 C 22.359375 -19.722656 21.796875 -22.226562 20.671875 -23.71875 C 19.546875 -25.207031 17.707031 -25.953125 15.15625 -25.953125 C 12.488281 -25.953125 10.515625 -25.164062 9.234375 -23.59375 C 7.953125 -22.03125 7.296875 -19.566406 7.265625 -16.203125 Z M 22.359375 -16.203125 "/></g></g></g><g fill="#000000" fill-opacity="1"><g transform="translate(244.464001, 284.651343)"><g><path d="M 10.390625 -14.515625 L 1.28125 -29.03125 L 6.046875 -29.03125 L 13.125 -17.65625 L 20.21875 -29.03125 L 24.96875 -29.03125 L 15.734375 -14.640625 L 24.921875 0 L 20.15625 0 L 13.125 -11.328125 L 6.046875 0 L 1.28125 0 Z M 10.390625 -14.515625 "/></g></g></g><g fill="#000000" fill-opacity="1"><g transform="translate(270.715281, 284.651343)"><g><path d="M 13.421875 0.640625 C 11.441406 0.640625 9.898438 0.320312 8.796875 -0.3125 C 7.691406 -0.957031 6.894531 -2.039062 6.40625 -3.5625 C 5.925781 -5.09375 5.6875 -7.234375 5.6875 -9.984375 L 5.6875 -25.265625 L 1.5625 -25.265625 L 1.5625 -29.03125 L 5.6875 -29.03125 L 5.6875 -37.921875 L 9.984375 -37.921875 L 9.984375 -29.03125 L 19.21875 -29.03125 L 19.21875 -25.265625 L 9.984375 -25.265625 L 9.984375 -11.390625 C 9.984375 -9.210938 10.0625 -7.59375 10.21875 -6.53125 C 10.375 -5.46875 10.75 -4.65625 11.34375 -4.09375 C 11.945312 -3.53125 12.890625 -3.25 14.171875 -3.25 L 19.34375 -3.59375 L 19.625 0 C 16.875 0.425781 14.804688 0.640625 13.421875 0.640625 Z M 13.421875 0.640625 "/></g></g></g><g fill="#000000" fill-opacity="1"><g transform="translate(291.100674, 284.651343)"><g/></g></g><g fill="#000000" fill-opacity="1"><g transform="translate(303.877841, 284.651343)"><g><path d="M 18.875 0.578125 C 15 0.578125 11.925781 -0.15625 9.65625 -1.625 C 7.394531 -3.09375 5.769531 -5.328125 4.78125 -8.328125 C 3.800781 -11.328125 3.3125 -15.25 3.3125 -20.09375 C 3.3125 -24.894531 3.800781 -28.804688 4.78125 -31.828125 C 5.769531 -34.847656 7.390625 -37.09375 9.640625 -38.5625 C 11.890625 -40.03125 14.929688 -40.765625 18.765625 -40.765625 C 22.242188 -40.765625 25.976562 -40.378906 29.96875 -39.609375 L 31.9375 -39.265625 L 31.765625 -35.546875 C 26.960938 -36.359375 22.800781 -36.765625 19.28125 -36.765625 C 16.34375 -36.765625 14.050781 -36.210938 12.40625 -35.109375 C 10.757812 -34.003906 9.601562 -32.257812 8.9375 -29.875 C 8.28125 -27.5 7.953125 -24.238281 7.953125 -20.09375 C 7.953125 -15.945312 8.28125 -12.679688 8.9375 -10.296875 C 9.601562 -7.921875 10.75 -6.171875 12.375 -5.046875 C 14 -3.929688 16.28125 -3.375 19.21875 -3.375 C 21.8125 -3.375 24.582031 -3.644531 27.53125 -4.1875 L 27.53125 -16.546875 L 20.84375 -16.546875 L 20.84375 -20.5625 L 31.9375 -20.5625 L 31.9375 -0.8125 C 27.0625 0.113281 22.707031 0.578125 18.875 0.578125 Z M 18.875 0.578125 "/></g></g></g><g fill="#000000" fill-opacity="1"><g transform="translate(339.653924, 284.651343)"><g><path d="M 15.046875 0.578125 C 10.628906 0.578125 7.5 -0.570312 5.65625 -2.875 C 3.820312 -5.175781 2.90625 -8.804688 2.90625 -13.765625 C 2.90625 -19.148438 3.890625 -23.140625 5.859375 -25.734375 C 7.835938 -28.328125 10.9375 -29.625 15.15625 -29.625 C 19.03125 -29.625 21.925781 -28.507812 23.84375 -26.28125 C 25.757812 -24.050781 26.71875 -20.632812 26.71875 -16.03125 L 26.484375 -12.71875 L 7.3125 -12.71875 C 7.3125 -10.320312 7.570312 -8.441406 8.09375 -7.078125 C 8.625 -5.722656 9.515625 -4.742188 10.765625 -4.140625 C 12.023438 -3.546875 13.78125 -3.25 16.03125 -3.25 C 17.15625 -3.25 18.453125 -3.273438 19.921875 -3.328125 C 21.390625 -3.390625 22.722656 -3.476562 23.921875 -3.59375 L 25.609375 -3.78125 L 25.734375 -0.34375 C 21.429688 0.269531 17.867188 0.578125 15.046875 0.578125 Z M 22.359375 -16.203125 C 22.359375 -19.722656 21.796875 -22.226562 20.671875 -23.71875 C 19.546875 -25.207031 17.707031 -25.953125 15.15625 -25.953125 C 12.488281 -25.953125 10.515625 -25.164062 9.234375 -23.59375 C 7.953125 -22.03125 7.296875 -19.566406 7.265625 -16.203125 Z M 22.359375 -16.203125 "/></g></g></g><g fill="#000000" fill-opacity="1"><g transform="translate(368.983343, 284.651343)"><g><path d="M 4.1875 -29.03125 L 8.484375 -29.03125 L 8.484375 -27 C 10.222656 -27.96875 11.816406 -28.644531 13.265625 -29.03125 C 14.722656 -29.425781 16.242188 -29.625 17.828125 -29.625 C 20.304688 -29.625 22.222656 -29.15625 23.578125 -28.21875 C 24.929688 -27.289062 25.890625 -25.8125 26.453125 -23.78125 C 27.015625 -21.75 27.296875 -18.929688 27.296875 -15.328125 L 27.296875 0 L 23 0 L 23 -15.21875 C 23 -17.96875 22.832031 -20.078125 22.5 -21.546875 C 22.175781 -23.015625 21.585938 -24.078125 20.734375 -24.734375 C 19.878906 -25.398438 18.640625 -25.734375 17.015625 -25.734375 C 15.703125 -25.734375 14.359375 -25.566406 12.984375 -25.234375 C 11.609375 -24.898438 10.492188 -24.523438 9.640625 -24.109375 L 8.53125 -23.578125 L 8.53125 0 L 4.1875 0 Z M 4.1875 -29.03125 "/></g></g></g><g fill="#000000" fill-opacity="1"><g transform="translate(400.171237, 284.651343)"><g/></g></g><g fill="#000000" fill-opacity="1"><g transform="translate(412.948404, 284.651343)"><g><path d="M 19.21875 0.578125 C 15.226562 0.578125 12.070312 -0.132812 9.75 -1.5625 C 7.425781 -3 5.769531 -5.195312 4.78125 -8.15625 C 3.800781 -11.125 3.3125 -15.046875 3.3125 -19.921875 C 3.3125 -24.765625 3.8125 -28.703125 4.8125 -31.734375 C 5.820312 -34.773438 7.488281 -37.039062 9.8125 -38.53125 C 12.132812 -40.019531 15.253906 -40.765625 19.171875 -40.765625 C 23.078125 -40.765625 26.191406 -40.019531 28.515625 -38.53125 C 30.835938 -37.039062 32.507812 -34.773438 33.53125 -31.734375 C 34.5625 -28.703125 35.078125 -24.722656 35.078125 -19.796875 C 35.078125 -14.878906 34.582031 -10.945312 33.59375 -8 C 32.601562 -5.0625 30.957031 -2.894531 28.65625 -1.5 C 26.351562 -0.113281 23.207031 0.578125 19.21875 0.578125 Z M 19.21875 -3.375 C 22.164062 -3.375 24.441406 -3.914062 26.046875 -5 C 27.648438 -6.082031 28.78125 -7.789062 29.4375 -10.125 C 30.101562 -12.46875 30.4375 -15.691406 30.4375 -19.796875 C 30.4375 -23.898438 30.097656 -27.171875 29.421875 -29.609375 C 28.742188 -32.054688 27.585938 -33.867188 25.953125 -35.046875 C 24.328125 -36.234375 22.066406 -36.828125 19.171875 -36.828125 C 16.265625 -36.828125 14 -36.242188 12.375 -35.078125 C 10.75 -33.921875 9.597656 -32.117188 8.921875 -29.671875 C 8.242188 -27.234375 7.90625 -23.984375 7.90625 -19.921875 C 7.90625 -15.859375 8.234375 -12.632812 8.890625 -10.25 C 9.546875 -7.863281 10.695312 -6.117188 12.34375 -5.015625 C 13.988281 -3.921875 16.28125 -3.375 19.21875 -3.375 Z M 19.21875 -3.375 "/></g></g></g><g fill="#000000" fill-opacity="1"><g transform="translate(451.279906, 284.651343)"><g><path d="M 4.1875 -29.03125 L 8.484375 -29.03125 L 8.484375 -27 C 10.222656 -27.96875 11.816406 -28.644531 13.265625 -29.03125 C 14.722656 -29.425781 16.242188 -29.625 17.828125 -29.625 C 20.304688 -29.625 22.222656 -29.15625 23.578125 -28.21875 C 24.929688 -27.289062 25.890625 -25.8125 26.453125 -23.78125 C 27.015625 -21.75 27.296875 -18.929688 27.296875 -15.328125 L 27.296875 0 L 23 0 L 23 -15.21875 C 23 -17.96875 22.832031 -20.078125 22.5 -21.546875 C 22.175781 -23.015625 21.585938 -24.078125 20.734375 -24.734375 C 19.878906 -25.398438 18.640625 -25.734375 17.015625 -25.734375 C 15.703125 -25.734375 14.359375 -25.566406 12.984375 -25.234375 C 11.609375 -24.898438 10.492188 -24.523438 9.640625 -24.109375 L 8.53125 -23.578125 L 8.53125 0 L 4.1875 0 Z M 4.1875 -29.03125 "/></g></g></g><g fill="#000000" fill-opacity="1"><g transform="translate(482.4678, 284.651343)"><g><path d="M 4.53125 -41.703125 L 8.890625 -41.703125 L 8.890625 0 L 4.53125 0 Z M 4.53125 -41.703125 "/></g></g></g><g fill="#000000" fill-opacity="1"><g transform="translate(495.883845, 284.651343)"><g><path d="M 4.1875 0 Z M 4.1875 -29.03125 L 8.484375 -29.03125 L 8.484375 0 L 4.1875 0 Z M 3.703125 -40.421875 L 8 -40.421875 L 8 -35.375 L 3.703125 -35.375 Z M 3.703125 -40.421875 "/></g></g></g><g fill="#000000" fill-opacity="1"><g transform="translate(508.544855, 284.651343)"><g><path d="M 4.1875 -29.03125 L 8.484375 -29.03125 L 8.484375 -27 C 10.222656 -27.96875 11.816406 -28.644531 13.265625 -29.03125 C 14.722656 -29.425781 16.242188 -29.625 17.828125 -29.625 C 20.304688 -29.625 22.222656 -29.15625 23.578125 -28.21875 C 24.929688 -27.289062 25.890625 -25.8125 26.453125 -23.78125 C 27.015625 -21.75 27.296875 -18.929688 27.296875 -15.328125 L 27.296875 0 L 23 0 L 23 -15.21875 C 23 -17.96875 22.832031 -20.078125 22.5 -21.546875 C 22.175781 -23.015625 21.585938 -24.078125 20.734375 -24.734375 C 19.878906 -25.398438 18.640625 -25.734375 17.015625 -25.734375 C 15.703125 -25.734375 14.359375 -25.566406 12.984375 -25.234375 C 11.609375 -24.898438 10.492188 -24.523438 9.640625 -24.109375 L 8.53125 -23.578125 L 8.53125 0 L 4.1875 0 Z M 4.1875 -29.03125 "/></g></g></g><g fill="#000000" fill-opacity="1"><g transform="translate(539.732749, 284.651343)"><g><path d="M 15.046875 0.578125 C 10.628906 0.578125 7.5 -0.570312 5.65625 -2.875 C 3.820312 -5.175781 2.90625 -8.804688 2.90625 -13.765625 C 2.90625 -19.148438 3.890625 -23.140625 5.859375 -25.734375 C 7.835938 -28.328125 10.9375 -29.625 15.15625 -29.625 C 19.03125 -29.625 21.925781 -28.507812 23.84375 -26.28125 C 25.757812 -24.050781 26.71875 -20.632812 26.71875 -16.03125 L 26.484375 -12.71875 L 7.3125 -12.71875 C 7.3125 -10.320312 7.570312 -8.441406 8.09375 -7.078125 C 8.625 -5.722656 9.515625 -4.742188 10.765625 -4.140625 C 12.023438 -3.546875 13.78125 -3.25 16.03125 -3.25 C 17.15625 -3.25 18.453125 -3.273438 19.921875 -3.328125 C 21.390625 -3.390625 22.722656 -3.476562 23.921875 -3.59375 L 25.609375 -3.78125 L 25.734375 -0.34375 C 21.429688 0.269531 17.867188 0.578125 15.046875 0.578125 Z M 22.359375 -16.203125 C 22.359375 -19.722656 21.796875 -22.226562 20.671875 -23.71875 C 19.546875 -25.207031 17.707031 -25.953125 15.15625 -25.953125 C 12.488281 -25.953125 10.515625 -25.164062 9.234375 -23.59375 C 7.953125 -22.03125 7.296875 -19.566406 7.265625 -16.203125 Z M 22.359375 -16.203125 "/></g></g></g><g fill="#000000" fill-opacity="1"><g transform="translate(569.062169, 284.651343)"><g/></g></g><g fill="#000000" fill-opacity="1"><g transform="translate(581.839313, 284.651343)"><g><path d="M 27.0625 -4 L 27.0625 0 L 4.9375 0 L 4.9375 -40.1875 L 9.40625 -40.1875 L 9.40625 -4 Z M 27.0625 -4 "/></g></g></g><g fill="#000000" fill-opacity="1"><g transform="translate(609.658707, 284.651343)"><g><path d="M 15.046875 0.578125 C 10.628906 0.578125 7.5 -0.570312 5.65625 -2.875 C 3.820312 -5.175781 2.90625 -8.804688 2.90625 -13.765625 C 2.90625 -19.148438 3.890625 -23.140625 5.859375 -25.734375 C 7.835938 -28.328125 10.9375 -29.625 15.15625 -29.625 C 19.03125 -29.625 21.925781 -28.507812 23.84375 -26.28125 C 25.757812 -24.050781 26.71875 -20.632812 26.71875 -16.03125 L 26.484375 -12.71875 L 7.3125 -12.71875 C 7.3125 -10.320312 7.570312 -8.441406 8.09375 -7.078125 C 8.625 -5.722656 9.515625 -4.742188 10.765625 -4.140625 C 12.023438 -3.546875 13.78125 -3.25 16.03125 -3.25 C 17.15625 -3.25 18.453125 -3.273438 19.921875 -3.328125 C 21.390625 -3.390625 22.722656 -3.476562 23.921875 -3.59375 L 25.609375 -3.78125 L 25.734375 -0.34375 C 21.429688 0.269531 17.867188 0.578125 15.046875 0.578125 Z M 22.359375 -16.203125 C 22.359375 -19.722656 21.796875 -22.226562 20.671875 -23.71875 C 19.546875 -25.207031 17.707031 -25.953125 15.15625 -25.953125 C 12.488281 -25.953125 10.515625 -25.164062 9.234375 -23.59375 C 7.953125 -22.03125 7.296875 -19.566406 7.265625 -16.203125 Z M 22.359375 -16.203125 "/></g></g></g><g fill="#000000" fill-opacity="1"><g transform="translate(638.988127, 284.651343)"><g><path d="M 10.515625 0.578125 C 7.835938 0.578125 5.800781 -0.175781 4.40625 -1.6875 C 3.019531 -3.195312 2.328125 -5.363281 2.328125 -8.1875 C 2.328125 -10.976562 3.03125 -13.050781 4.4375 -14.40625 C 5.851562 -15.757812 8.109375 -16.59375 11.203125 -16.90625 L 20.328125 -17.765625 L 20.328125 -20.265625 C 20.328125 -23.941406 18.738281 -25.78125 15.5625 -25.78125 C 12.425781 -25.78125 8.613281 -25.53125 4.125 -25.03125 L 3.953125 -28.34375 C 8.085938 -29.195312 11.863281 -29.625 15.28125 -29.625 C 18.570312 -29.625 20.960938 -28.875 22.453125 -27.375 C 23.941406 -25.882812 24.6875 -23.515625 24.6875 -20.265625 L 24.6875 -5.40625 C 24.800781 -3.96875 25.921875 -3.113281 28.046875 -2.84375 L 27.875 0.578125 C 24.820312 0.578125 22.519531 -0.195312 20.96875 -1.75 C 17.519531 -0.195312 14.035156 0.578125 10.515625 0.578125 Z M 11.203125 -3.078125 C 13.796875 -3.078125 16.390625 -3.519531 18.984375 -4.40625 L 20.328125 -4.875 L 20.328125 -14.46875 L 11.734375 -13.640625 C 9.992188 -13.492188 8.734375 -12.992188 7.953125 -12.140625 C 7.179688 -11.285156 6.796875 -10.046875 6.796875 -8.421875 C 6.796875 -4.859375 8.265625 -3.078125 11.203125 -3.078125 Z M 11.203125 -3.078125 "/></g></g></g><g fill="#000000" fill-opacity="1"><g transform="translate(668.085232, 284.651343)"><g><path d="M 4.1875 -29.03125 L 8.484375 -29.03125 L 8.484375 -25.09375 C 11.804688 -27.375 15.347656 -28.898438 19.109375 -29.671875 L 19.109375 -25.265625 C 17.597656 -24.953125 15.960938 -24.472656 14.203125 -23.828125 C 12.441406 -23.191406 11.035156 -22.601562 9.984375 -22.0625 L 8.53125 -21.3125 L 8.53125 0 L 4.1875 0 Z M 4.1875 -29.03125 "/></g></g></g><g fill="#000000" fill-opacity="1"><g transform="translate(688.180232, 284.651343)"><g><path d="M 4.1875 -29.03125 L 8.484375 -29.03125 L 8.484375 -27 C 10.222656 -27.96875 11.816406 -28.644531 13.265625 -29.03125 C 14.722656 -29.425781 16.242188 -29.625 17.828125 -29.625 C 20.304688 -29.625 22.222656 -29.15625 23.578125 -28.21875 C 24.929688 -27.289062 25.890625 -25.8125 26.453125 -23.78125 C 27.015625 -21.75 27.296875 -18.929688 27.296875 -15.328125 L 27.296875 0 L 23 0 L 23 -15.21875 C 23 -17.96875 22.832031 -20.078125 22.5 -21.546875 C 22.175781 -23.015625 21.585938 -24.078125 20.734375 -24.734375 C 19.878906 -25.398438 18.640625 -25.734375 17.015625 -25.734375 C 15.703125 -25.734375 14.359375 -25.566406 12.984375 -25.234375 C 11.609375 -24.898438 10.492188 -24.523438 9.640625 -24.109375 L 8.53125 -23.578125 L 8.53125 0 L 4.1875 0 Z M 4.1875 -29.03125 "/></g></g></g><g fill="#000000" fill-opacity="1"><g transform="translate(719.368126, 284.651343)"><g><path d="M 4.1875 0 Z M 4.1875 -29.03125 L 8.484375 -29.03125 L 8.484375 0 L 4.1875 0 Z M 3.703125 -40.421875 L 8 -40.421875 L 8 -35.375 L 3.703125 -35.375 Z M 3.703125 -40.421875 "/></g></g></g><g fill="#000000" fill-opacity="1"><g transform="translate(732.029135, 284.651343)"><g><path d="M 4.1875 -29.03125 L 8.484375 -29.03125 L 8.484375 -27 C 10.222656 -27.96875 11.816406 -28.644531 13.265625 -29.03125 C 14.722656 -29.425781 16.242188 -29.625 17.828125 -29.625 C 20.304688 -29.625 22.222656 -29.15625 23.578125 -28.21875 C 24.929688 -27.289062 25.890625 -25.8125 26.453125 -23.78125 C 27.015625 -21.75 27.296875 -18.929688 27.296875 -15.328125 L 27.296875 0 L 23 0 L 23 -15.21875 C 23 -17.96875 22.832031 -20.078125 22.5 -21.546875 C 22.175781 -23.015625 21.585938 -24.078125 20.734375 -24.734375 C 19.878906 -25.398438 18.640625 -25.734375 17.015625 -25.734375 C 15.703125 -25.734375 14.359375 -25.566406 12.984375 -25.234375 C 11.609375 -24.898438 10.492188 -24.523438 9.640625 -24.109375 L 8.53125 -23.578125 L 8.53125 0 L 4.1875 0 Z M 4.1875 -29.03125 "/></g></g></g><g fill="#000000" fill-opacity="1"><g transform="translate(763.217029, 284.651343)"><g><path d="M 14.8125 13.640625 C 10.476562 13.640625 7.410156 12.988281 5.609375 11.6875 C 3.804688 10.394531 2.90625 8.242188 2.90625 5.234375 C 2.90625 3.992188 3.050781 2.972656 3.34375 2.171875 C 3.632812 1.378906 4.085938 0.671875 4.703125 0.046875 C 5.328125 -0.566406 6.253906 -1.359375 7.484375 -2.328125 C 6.941406 -2.671875 6.535156 -3.191406 6.265625 -3.890625 C 5.992188 -4.585938 5.859375 -5.320312 5.859375 -6.09375 C 5.859375 -6.601562 5.972656 -7.15625 6.203125 -7.75 C 6.441406 -8.351562 6.988281 -9.410156 7.84375 -10.921875 C 4.78125 -12.273438 3.25 -15.175781 3.25 -19.625 C 3.25 -23 4.160156 -25.507812 5.984375 -27.15625 C 7.804688 -28.800781 10.554688 -29.625 14.234375 -29.625 C 16.015625 -29.625 17.988281 -29.367188 20.15625 -28.859375 L 28.75 -29.09375 L 28.75 -25.375 L 23.234375 -25.5 C 23.890625 -24.84375 24.367188 -24.035156 24.671875 -23.078125 C 24.984375 -22.128906 25.140625 -20.921875 25.140625 -19.453125 C 25.140625 -16.003906 24.25 -13.546875 22.46875 -12.078125 C 20.6875 -10.609375 17.882812 -9.875 14.0625 -9.875 C 12.851562 -9.875 11.863281 -9.953125 11.09375 -10.109375 C 10.78125 -9.328125 10.523438 -8.644531 10.328125 -8.0625 C 10.140625 -7.488281 10.046875 -6.988281 10.046875 -6.5625 C 10.046875 -5.550781 10.441406 -4.890625 11.234375 -4.578125 C 12.023438 -4.273438 13.253906 -4.125 14.921875 -4.125 L 17.1875 -4.125 C 19.75 -4.125 21.8125 -3.929688 23.375 -3.546875 C 24.945312 -3.160156 26.15625 -2.375 27 -1.1875 C 27.851562 -0.0078125 28.28125 1.703125 28.28125 3.953125 C 28.28125 7.316406 27.234375 9.769531 25.140625 11.3125 C 23.054688 12.863281 19.613281 13.640625 14.8125 13.640625 Z M 14.234375 -13.359375 C 16.585938 -13.359375 18.269531 -13.84375 19.28125 -14.8125 C 20.289062 -15.78125 20.796875 -17.425781 20.796875 -19.75 C 20.796875 -22.03125 20.289062 -23.65625 19.28125 -24.625 C 18.269531 -25.59375 16.601562 -26.078125 14.28125 -26.078125 C 11.882812 -26.078125 10.171875 -25.582031 9.140625 -24.59375 C 8.117188 -23.601562 7.609375 -21.96875 7.609375 -19.6875 C 7.609375 -17.40625 8.117188 -15.78125 9.140625 -14.8125 C 10.171875 -13.84375 11.867188 -13.359375 14.234375 -13.359375 Z M 15.21875 9.984375 C 18.425781 9.984375 20.671875 9.546875 21.953125 8.671875 C 23.234375 7.804688 23.875 6.3125 23.875 4.1875 C 23.875 2.945312 23.660156 2.003906 23.234375 1.359375 C 22.804688 0.722656 22.085938 0.285156 21.078125 0.046875 C 20.078125 -0.179688 18.625 -0.296875 16.71875 -0.296875 L 10.453125 -0.578125 C 9.171875 0.347656 8.304688 1.160156 7.859375 1.859375 C 7.421875 2.554688 7.203125 3.484375 7.203125 4.640625 C 7.203125 6.660156 7.789062 8.054688 8.96875 8.828125 C 10.15625 9.597656 12.238281 9.984375 15.21875 9.984375 Z M 15.21875 9.984375 "/></g></g></g></svg>